<svg fill="#333" width="22" height="22" viewBox="0 0 22 22"  xmlns="http://www.w3.org/2000/svg">
<path class="mine" d="M22 12V10H18.93C18.7496 8.57821 18.1901 7.23113 17.31 6.1L19.5 3.93L18.07 2.5L15.9 4.69C14.7689 3.80991 13.4218 3.25036 12 3.07V0H10V3.07C8.58 3.25 7.23 3.81 6.1 4.69L3.93 2.5L2.5 3.93L4.69 6.1C3.80991 7.23113 3.25036 8.57821 3.07 10H0V12H3.07C3.25 13.42 3.81 14.77 4.69 15.9L2.5 18.07L3.93 19.5L6.1 17.31C7.23 18.19 8.58 18.75 10 18.93V22H12V18.93C13.42 18.75 14.77 18.19 15.9 17.31L18.07 19.5L19.5 18.07L17.31 15.9C18.1901 14.7689 18.7496 13.4218 18.93 12H22V12ZM11 7C9.93913 7 8.92172 7.42143 8.17157 8.17157C7.42143 8.92172 7 9.93913 7 11H5C5 9.4087 5.63214 7.88258 6.75736 6.75736C7.88258 5.63214 9.4087 5 11 5V7Z" />
</svg>
